<svg xmlns="http://www.w3.org/2000/svg" viewBox="0 0 520 120">
  <rect x="5" y="10" width="100" height="100" rx="22" fill="#FC8019"/>
  <path d="M55 32c-8 0-14 6-14 13.5v3c0 0 5-1.2 8.5 0.5 3.5 1.7 4.5 5 4.5 5s1-3.3 4.5-5c3.5-1.7 8.5-0.5 8.5-0.5v-3C67 38 61 32 55 32z" fill="white"/>
  <path d="M55 58c0 0-5 2.5-7.5 7.5-2.5 5-1.5 11-1.5 11 0 0 3.5-3.5 9-3.5 5.5 0 9 3.5 9 3.5 0 0 1-6-1.5-11C60 60.5 55 58 55 58z" fill="white"/>
  <ellipse cx="55" cy="88" rx="5" ry="5" fill="white"/>
  <text x="125" y="82" font-family="Arial,Helvetica,sans-serif" font-weight="bold" font-size="62" fill="#FC8019">Swiggy</text>
</svg>
